<?xml version="1.0" encoding="utf-8"?><svg xml:space="preserve" viewBox="0 0 100 100" y="0" x="0" xmlns="http://www.w3.org/2000/svg" id="圖層_1" version="1.1" width="207px" height="207px" xmlns:xlink="http://www.w3.org/1999/xlink" style="width:100%;height:100%;background-size:initial;background-repeat-y:initial;background-repeat-x:initial;background-position-y:initial;background-position-x:initial;background-origin:initial;background-color:initial;background-clip:initial;background-attachment:initial;animation-play-state:paused" ><g class="ldl-scale" style="transform-origin:50% 50%;transform:scale(1);animation-play-state:paused" ><path stroke-miterlimit="10" stroke-width="3.5" stroke="#333" stroke-linejoin="round" stroke-linecap="round" fill="#666" d="M91.818 74.5h0a6.02 6.02 0 0 1-5.294-3.155l-5.441-10.053a6.123 6.123 0 0 0-5.385-3.209H24.302a6.123 6.123 0 0 0-5.385 3.209l-5.441 10.053A6.02 6.02 0 0 1 8.182 74.5h0V83h.12c.403 1.612 1.834 2.917 3.715 2.917h75.967c1.881 0 3.312-1.305 3.715-2.917h.12v-8.5z" style="stroke:rgb(0, 31, 45);fill:rgb(0, 143, 212);animation-play-state:paused" ></path>
<path stroke-miterlimit="10" stroke-width="3.5" stroke="#333" fill="#666" stroke-linecap="round" d="M79.346 55.083H20.654V15.631c0-.855.693-1.548 1.548-1.548h55.596c.855 0 1.548.693 1.548 1.548v39.452z" style="stroke:rgb(0, 31, 45);fill:rgb(0, 143, 212);animation-play-state:paused" ></path>
<path stroke-linecap="round" fill="#333" stroke-miterlimit="10" stroke-width="3.5" stroke="#333" d="M69.875 47.583h-39.75A1.125 1.125 0 0 1 29 46.458v-23.75c0-.621.504-1.125 1.125-1.125h39.75c.621 0 1.125.504 1.125 1.125v23.75c0 .622-.504 1.125-1.125 1.125z" style="stroke:rgb(0, 31, 45);fill:rgb(0, 31, 45);animation-play-state:paused" ></path>
<path stroke-miterlimit="10" stroke-width="3.5" stroke="#333" fill="#666" stroke-linecap="round" d="M87.983 78.417H12.017c-2.901 0-4.749-3.101-3.368-5.652l12.005-17.681h58.692l12.005 17.681c1.381 2.551-.466 5.652-3.368 5.652z" style="stroke:rgb(0, 31, 45);fill:rgb(0, 143, 212);animation-play-state:paused" ></path>
<path d="M25.833 60.833h3.334" stroke-linecap="round" fill="none" stroke-miterlimit="10" stroke-width="3.5" stroke="#333" style="stroke:rgb(0, 31, 45);animation-play-state:paused" ></path>
<path d="M34.833 60.833h3.334" stroke-linecap="round" fill="none" stroke-miterlimit="10" stroke-width="3.5" stroke="#333" style="stroke:rgb(0, 31, 45);animation-play-state:paused" ></path>
<path d="M43.833 60.833h3.334" stroke-linecap="round" fill="none" stroke-miterlimit="10" stroke-width="3.5" stroke="#333" style="stroke:rgb(0, 31, 45);animation-play-state:paused" ></path>
<path d="M52.833 60.833h3.334" stroke-linecap="round" fill="none" stroke-miterlimit="10" stroke-width="3.5" stroke="#333" style="stroke:rgb(0, 31, 45);animation-play-state:paused" ></path>
<path d="M61.833 60.833h3.334" stroke-linecap="round" fill="none" stroke-miterlimit="10" stroke-width="3.5" stroke="#333" style="stroke:rgb(0, 31, 45);animation-play-state:paused" ></path>
<path d="M70.833 60.833h3.334" stroke-linecap="round" fill="none" stroke-miterlimit="10" stroke-width="3.5" stroke="#333" style="stroke:rgb(0, 31, 45);animation-play-state:paused" ></path>
<path d="M21.333 66.833h3.334" stroke-linecap="round" fill="none" stroke-miterlimit="10" stroke-width="3.5" stroke="#333" style="stroke:rgb(0, 31, 45);animation-play-state:paused" ></path>
<path d="M30.333 66.833h3.334" stroke-linecap="round" fill="none" stroke-miterlimit="10" stroke-width="3.5" stroke="#333" style="stroke:rgb(0, 31, 45);animation-play-state:paused" ></path>
<path d="M39.333 66.833h3.334" stroke-linecap="round" fill="none" stroke-miterlimit="10" stroke-width="3.5" stroke="#333" style="stroke:rgb(0, 31, 45);animation-play-state:paused" ></path>
<path d="M48.333 66.833h3.334" stroke-linecap="round" fill="none" stroke-miterlimit="10" stroke-width="3.5" stroke="#333" style="stroke:rgb(0, 31, 45);animation-play-state:paused" ></path>
<path d="M57.333 66.833h3.334" stroke-linecap="round" fill="none" stroke-miterlimit="10" stroke-width="3.5" stroke="#333" style="stroke:rgb(0, 31, 45);animation-play-state:paused" ></path>
<path d="M66.333 66.833h3.334" stroke-linecap="round" fill="none" stroke-miterlimit="10" stroke-width="3.5" stroke="#333" style="stroke:rgb(0, 31, 45);animation-play-state:paused" ></path>
<path d="M75.333 66.833h3.334" stroke-linecap="round" fill="none" stroke-miterlimit="10" stroke-width="3.5" stroke="#333" style="stroke:rgb(0, 31, 45);animation-play-state:paused" ></path>
<path d="M16.833 72.833h3.334" stroke-linecap="round" fill="none" stroke-miterlimit="10" stroke-width="3.5" stroke="#333" style="stroke:rgb(0, 31, 45);animation-play-state:paused" ></path>
<path d="M25.833 72.833h3.334" stroke-linecap="round" fill="none" stroke-miterlimit="10" stroke-width="3.5" stroke="#333" style="stroke:rgb(0, 31, 45);animation-play-state:paused" ></path>
<path d="M34.833 72.833h3.334" stroke-linecap="round" fill="none" stroke-miterlimit="10" stroke-width="3.5" stroke="#333" style="stroke:rgb(0, 31, 45);animation-play-state:paused" ></path>
<path d="M43.833 72.833h3.334" stroke-linecap="round" fill="none" stroke-miterlimit="10" stroke-width="3.5" stroke="#333" style="stroke:rgb(0, 31, 45);animation-play-state:paused" ></path>
<path d="M52.833 72.833h3.334" stroke-linecap="round" fill="none" stroke-miterlimit="10" stroke-width="3.5" stroke="#333" style="stroke:rgb(0, 31, 45);animation-play-state:paused" ></path>
<path d="M61.833 72.833h3.334" stroke-linecap="round" fill="none" stroke-miterlimit="10" stroke-width="3.5" stroke="#333" style="stroke:rgb(0, 31, 45);animation-play-state:paused" ></path>
<path d="M70.833 72.833h3.334" stroke-linecap="round" fill="none" stroke-miterlimit="10" stroke-width="3.5" stroke="#333" style="stroke:rgb(0, 31, 45);animation-play-state:paused" ></path>
<path d="M79.833 72.833h3.334" stroke-linecap="round" fill="none" stroke-miterlimit="10" stroke-width="3.5" stroke="#333" style="stroke:rgb(0, 31, 45);animation-play-state:paused" ></path>
<metadata xmlns:d="https://loading.io/stock/" style="animation-play-state:paused" ><d:name style="animation-play-state:paused" >computer</d:name>


<d:tags style="animation-play-state:paused" >computer,laptop,notebook,macbook air,mba</d:tags>


<d:license style="animation-play-state:paused" >by</d:license>


<d:slug style="animation-play-state:paused" >xdv1pq</d:slug></metadata></g><!-- generated by https://loading.io/ --></svg>